<?xml version="1.0" encoding="UTF-8"?> <svg xmlns="http://www.w3.org/2000/svg" viewBox="0 0 620.42 179.81"><defs><style>.cls-1{fill:#f6941d;}.cls-2{fill:#faf170;}.cls-3{fill:#f7d312;}.cls-4{fill:#f8d848;}.cls-5{fill:#f14822;}</style></defs><g id="Layer_2" data-name="Layer 2"><g id="Layer_1-2" data-name="Layer 1"><polygon class="cls-1" points="47.18 0 0 0 31.45 59.94 47.18 0"></polygon><polygon class="cls-2" points="62.9 119.88 94.35 179.81 70.77 89.91 62.9 119.88"></polygon><polygon class="cls-2" points="23.59 89.91 0 179.81 31.45 119.88 23.59 89.91"></polygon><polygon class="cls-1" points="94.35 0 47.18 0 62.9 59.94 94.35 0"></polygon><polygon class="cls-3" points="47.18 89.91 62.9 59.94 47.18 0 31.45 59.94 47.18 89.91"></polygon><polygon class="cls-3" points="0 0 23.59 89.91 31.45 59.94 0 0"></polygon><polygon class="cls-4" points="47.18 179.81 94.35 179.81 62.9 119.88 47.18 179.81"></polygon><polygon class="cls-2" points="47.18 89.91 31.45 59.94 23.59 89.91 31.45 119.88 47.18 89.91"></polygon><polygon class="cls-3" points="70.77 89.91 94.35 0 62.9 59.94 70.77 89.91"></polygon><polygon class="cls-4" points="0 179.81 47.18 179.81 31.45 119.88 0 179.81"></polygon><polygon class="cls-2" points="47.18 89.91 62.9 119.88 70.77 89.91 62.9 59.94 47.18 89.91"></polygon><polygon class="cls-3" points="47.18 89.91 31.45 119.88 47.18 179.81 62.9 119.88 47.18 89.91"></polygon><path class="cls-5" d="M157.48,25.34h12.73V89.91h-9.69L132.85,50.43V89.91H120.12V25.34h9.68l27.68,39.33Z"></path><path class="cls-5" d="M210.88,91.2q-10.78,0-17.71-6.09t-6.92-16.32V25.34h12.64V67.77a10.91,10.91,0,0,0,2.91,8q2.89,3,9.08,3t9.09-3a11,11,0,0,0,2.9-8V25.34H235.6V68.79q0,10.23-6.91,16.32T210.88,91.2Z"></path><path class="cls-5" d="M294.36,25.34V37.52H276.93V89.91H264.2V37.52H246.86V25.34Z"></path><path class="cls-5" d="M341.49,89.91,328.44,67.49H318.8V89.91H306.07V25.34H331.9a21.41,21.41,0,0,1,21.49,21.4A19.65,19.65,0,0,1,350,57.85a21.34,21.34,0,0,1-9,7.7l14.29,24.36ZM318.8,37.24V56.33h13.1a8.08,8.08,0,0,0,6.18-2.81,9.69,9.69,0,0,0,2.58-6.78A9.5,9.5,0,0,0,338.08,40a8.14,8.14,0,0,0-6.18-2.77Z"></path><path class="cls-5" d="M367.32,25.34h12.73V89.91H367.32Z"></path><path class="cls-5" d="M434,25.34h12.73V89.91h-9.68L409.38,50.43V89.91H396.65V25.34h9.67L434,64.67Z"></path><path class="cls-5" d="M506,25.34V37.52H488.61V89.91H475.88V37.52H458.54V25.34Z"></path><path class="cls-5" d="M530.48,77.73h27.21V89.91H517.76V25.34h39.47V37.52H530.48V51.26h24.45v12H530.48Z"></path><path class="cls-5" d="M606.67,89.91l-13-22.42H584V89.91H571.25V25.34h25.83a21.41,21.41,0,0,1,21.49,21.4,19.65,19.65,0,0,1-3.41,11.11,21.28,21.28,0,0,1-9,7.7l14.3,24.36ZM584,37.24V56.33h13.1a8.08,8.08,0,0,0,6.18-2.81,9.69,9.69,0,0,0,2.58-6.78A9.5,9.5,0,0,0,603.26,40a8.14,8.14,0,0,0-6.18-2.77Z"></path><path d="M146.93,144l-3.53-9.19H125.31L121.79,144H118.9l14-36.14h2.89l14,36.14ZM126.3,132.19h16.11l-8.06-21Z"></path><path d="M156.06,124.83a3.34,3.34,0,0,0,1.62,2.94,13.16,13.16,0,0,0,3.92,1.67l4.62,1.22a8.33,8.33,0,0,1,3.9,2.22,5.9,5.9,0,0,1,1.59,4.32,6.49,6.49,0,0,1-2.56,5.26,10.27,10.27,0,0,1-6.68,2.06,11.78,11.78,0,0,1-6.28-1.57,8.23,8.23,0,0,1-3.53-4.16l2.22-1.29a6,6,0,0,0,2.71,3.33,9.18,9.18,0,0,0,4.88,1.22,8.35,8.35,0,0,0,4.77-1.27,4,4,0,0,0,1.88-3.58,3.56,3.56,0,0,0-1.6-3,11.89,11.89,0,0,0-3.89-1.73L159,131.2a8.8,8.8,0,0,1-3.93-2.16,5.51,5.51,0,0,1-1.6-4.13,6.61,6.61,0,0,1,2.46-5.21,9.32,9.32,0,0,1,6.32-2.12,10.18,10.18,0,0,1,5.39,1.39,8.43,8.43,0,0,1,3.38,3.77L168.87,124a5.79,5.79,0,0,0-2.58-2.92,8.17,8.17,0,0,0-4-1,7.29,7.29,0,0,0-4.41,1.29A4.09,4.09,0,0,0,156.06,124.83Z"></path><path d="M188.79,117.58a11.64,11.64,0,0,1,9.21,4,14,14,0,0,1,3.54,9.55c0,.13,0,.34,0,.62s0,.48,0,.61H178.11a10.39,10.39,0,0,0,3.48,7,11.89,11.89,0,0,0,12.88,1.37,8.81,8.81,0,0,0,3.51-3.41l2.27,1.34a11.46,11.46,0,0,1-4.54,4.26,14,14,0,0,1-6.71,1.57,13.27,13.27,0,0,1-9.76-3.79,13,13,0,0,1-3.82-9.68,13.25,13.25,0,0,1,3.74-9.62A12.84,12.84,0,0,1,188.79,117.58Zm0,2.48a10.35,10.35,0,0,0-7.33,2.73,10.67,10.67,0,0,0-3.35,7.08h20.75a10.59,10.59,0,0,0-3.28-7.2A9.76,9.76,0,0,0,188.79,120.06Z"></path><path d="M208.3,124.83a3.34,3.34,0,0,0,1.62,2.94,13.1,13.1,0,0,0,3.91,1.67l4.62,1.22a8.41,8.41,0,0,1,3.91,2.22,5.94,5.94,0,0,1,1.58,4.32,6.48,6.48,0,0,1-2.55,5.26,10.32,10.32,0,0,1-6.69,2.06,11.72,11.72,0,0,1-6.27-1.57,8.3,8.3,0,0,1-3.54-4.16l2.22-1.29a6.13,6.13,0,0,0,2.71,3.33,9.2,9.2,0,0,0,4.88,1.22,8.36,8.36,0,0,0,4.78-1.27,4.06,4.06,0,0,0,1.88-3.58,3.56,3.56,0,0,0-1.6-3,12,12,0,0,0-3.9-1.73l-4.62-1.22a8.76,8.76,0,0,1-3.92-2.16,5.47,5.47,0,0,1-1.6-4.13,6.64,6.64,0,0,1,2.45-5.21,9.35,9.35,0,0,1,6.33-2.12,10.18,10.18,0,0,1,5.39,1.39,8.43,8.43,0,0,1,3.38,3.77L221.1,124a5.7,5.7,0,0,0-2.58-2.92,8.1,8.1,0,0,0-4-1,7.34,7.34,0,0,0-4.42,1.29A4.08,4.08,0,0,0,208.3,124.83Z"></path><path d="M241.23,144.52a13.16,13.16,0,0,1-9.62-3.89,13.58,13.58,0,0,1,0-19.15,13.77,13.77,0,0,1,19.2,0,13.58,13.58,0,0,1,0,19.15A13.12,13.12,0,0,1,241.23,144.52Zm-7.77-5.67a11,11,0,0,0,15.52,0,11.25,11.25,0,0,0,0-15.59,11,11,0,0,0-15.52,0,11.17,11.17,0,0,0,0,15.59Z"></path><path d="M263.53,123.21q2.33-5.43,8.62-5.42v2.47a8.61,8.61,0,0,0-6.14,2.35q-2.47,2.36-2.48,7V144H261V118.15h2.58Z"></path><path d="M280.1,108h3.15l-3.46,6.56h-2.53ZM280,144V118.15h-2.59V144Z"></path><path d="M310.61,118.15h2.63V144h-2.63v-5.84a12.1,12.1,0,0,1-4.55,4.7,12.59,12.59,0,0,1-6.55,1.7,13.47,13.47,0,0,1,0-26.94,12.69,12.69,0,0,1,6.55,1.7,12.23,12.23,0,0,1,4.55,4.7ZM292,138.85a11,11,0,0,0,15.51,0,11.22,11.22,0,0,0,0-15.59,11,11,0,0,0-15.51,0,11.14,11.14,0,0,0,0,15.59Z"></path><path d="M359.23,107.82H362V144h-2.43l-21.32-31.09V144h-2.73V107.82h2.27L359.23,139Z"></path><path d="M389,118.15h2.58V144H389v-4.91q-2.79,5.47-9.24,5.47a9.65,9.65,0,0,1-7.3-2.81,10.35,10.35,0,0,1-2.71-7.51v-16h2.63v16a8,8,0,0,0,2,5.73,7.3,7.3,0,0,0,5.6,2.12,8.62,8.62,0,0,0,6.5-2.63q2.53-2.64,2.53-7.64Z"></path><path d="M412.76,120.68h-7.69v16.77a5,5,0,0,0,.82,3.2,3.44,3.44,0,0,0,2.53,1.11,24.76,24.76,0,0,0,4.34-.13V144q-5.22.76-7.77-.73t-2.56-5.78V120.68h-5.67v-2.53h5.67V111.7l2.64-.78v7.23h7.69Z"></path><path d="M421.53,123.21q2.33-5.43,8.62-5.42v2.47a8.61,8.61,0,0,0-6.14,2.35q-2.47,2.36-2.48,7V144H419V118.15h2.58Z"></path><path d="M438.1,111.31a2.07,2.07,0,0,1-3.51-1.47,1.9,1.9,0,0,1,.62-1.42,2,2,0,0,1,2.89,0,1.9,1.9,0,0,1,.62,1.42A2,2,0,0,1,438.1,111.31ZM435.36,144V118.15H438V144Z"></path><path d="M457.71,144.52a13.17,13.17,0,0,1-9.7-3.87,13.84,13.84,0,0,1,0-19.2,14,14,0,0,1,16.52-2.09,10.67,10.67,0,0,1,4.44,4.83l-2.12,1.24a8.68,8.68,0,0,0-3.59-3.93,10.73,10.73,0,0,0-5.55-1.44,10.57,10.57,0,0,0-7.79,3.17,11.28,11.28,0,0,0,0,15.64,11.22,11.22,0,0,0,13.34,1.73,9.69,9.69,0,0,0,3.75-3.92l2.16,1.29a11.52,11.52,0,0,1-4.62,4.77A13.32,13.32,0,0,1,457.71,144.52Z"></path><path d="M477.59,111.31a2,2,0,0,1-1.45.59,2,2,0,0,1-1.44-.59,1.94,1.94,0,0,1-.62-1.47,1.87,1.87,0,0,1,.62-1.42,2,2,0,0,1,1.44-.6,2,2,0,0,1,1.45.6,1.9,1.9,0,0,1,.62,1.42A2,2,0,0,1,477.59,111.31ZM474.85,144V118.15h2.58V144Z"></path><path d="M497.2,144.52a13.19,13.19,0,0,1-9.63-3.89,13.6,13.6,0,0,1,0-19.15,13.78,13.78,0,0,1,19.21,0,13.6,13.6,0,0,1,0,19.15A13.14,13.14,0,0,1,497.2,144.52Zm-7.77-5.67a11,11,0,0,0,15.51,0,11.22,11.22,0,0,0,0-15.59,11,11,0,0,0-15.51,0,11.17,11.17,0,0,0,0,15.59Z"></path><path d="M528.74,117.58a9.67,9.67,0,0,1,7.3,2.81,10.36,10.36,0,0,1,2.71,7.51V144h-2.63V127.9a8,8,0,0,0-2-5.73,7.3,7.3,0,0,0-5.6-2.11,8.62,8.62,0,0,0-6.5,2.63c-1.69,1.76-2.53,4.3-2.53,7.64V144h-2.58V118.15h2.58v4.9Q522.29,117.58,528.74,117.58Z"></path><path d="M568.74,118.15h2.63V144h-2.63v-5.84a12.07,12.07,0,0,1-4.54,4.7,12.63,12.63,0,0,1-6.56,1.7,13.47,13.47,0,0,1,0-26.94,12.73,12.73,0,0,1,6.56,1.7,12.21,12.21,0,0,1,4.54,4.7Zm-18.66,20.7a11,11,0,0,0,15.51,0,11.22,11.22,0,0,0,0-15.59,11,11,0,0,0-15.51,0,11.17,11.17,0,0,0,0,15.59Z"></path><path d="M579.32,144V106.28h2.58V144Z"></path></g></g></svg> 